<?xml version="1.0" encoding="utf-8"?>
<!-- Generator: Adobe Illustrator 16.0.0, SVG Export Plug-In . SVG Version: 6.00 Build 0)  -->
<!DOCTYPE svg PUBLIC "-//W3C//DTD SVG 1.1//EN" "http://www.w3.org/Graphics/SVG/1.1/DTD/svg11.dtd">
<svg version="1.1" id="Capa_1" xmlns="http://www.w3.org/2000/svg" xmlns:xlink="http://www.w3.org/1999/xlink" x="0px" y="0px"
	 width="28.667px" height="28.667px" viewBox="0 0 28.667 28.667" enable-background="new 0 0 28.667 28.667" xml:space="preserve">
<g  stroke="#24292E" stroke-width="1">
	<path id="c1" d="M14.333,1.225c-0.105,0.019-2.142,0.301-2.142,0.301l0.052,0.014C6.438,2.137,7.276,4.224,7.276,7.777v2.26
		C7.134,9.965,6.992,9.936,6.854,9.974c-0.463,0.124-0.323,1.437-0.108,2.251c0.209,0.798,0.92,1.321,1.377,1.229
		c0.048,0.308,0.104,0.599,0.166,0.879h6.045V1.225z"/>
	<path id="c2" d="M20.406,14.333c0.068-0.288,0.145-0.563,0.195-0.877c0.455,0.083,1.053-0.387,1.261-1.179
		c0.214-0.813,0.462-2.178-0.003-2.302c-0.137-0.037-0.279-0.009-0.422,0.063v-2.26c0.076-2.457-0.26-4.829-2.939-5.856
		C18.009,0.915,17.977,0,17.977,0c-0.649,0.585-2.279,0.983-3.644,1.225v13.108H20.406z"/>
	<path id="c3" d="M2.513,28.667h11.82V14.333H8.288c0.38,1.741,1.008,2.957,1.829,3.791C5.673,19.75,2.513,23.852,2.513,28.667z"/>
	<path id="c4" d="M14.333,28.667h11.82c-0.002-4.84-3.191-8.957-7.668-10.563c0.881-0.862,1.531-2.118,1.92-3.771h-6.072V28.667z"/>
</g>
</svg>
